<svg width="131" height="131" viewBox="0 0 131 131" fill="none" xmlns="http://www.w3.org/2000/svg">
<mask id="mask0" mask-type="alpha" maskUnits="userSpaceOnUse" x="0" y="0" width="131" height="131">
<circle cx="65.5" cy="65.5" r="65.5" fill="#C4C4C4"/>
</mask>
<g mask="url(#mask0)">
<rect x="-2.20169" y="-7.70587" width="136.888" height="147.191" rx="57" fill="#FF476F"/>
<path d="M76.1626 76.8376C75.2803 76.1659 75.9759 74.7689 77.0391 75.0775L124.845 88.9529C125.446 89.1272 125.742 89.8053 125.464 90.3653L117.333 106.692C117.054 107.252 116.337 107.419 115.839 107.04L76.1626 76.8376Z" fill="white"/>
<path d="M71.7199 102.326C70.6328 102.147 70.5838 100.601 71.6578 100.364L121.902 89.2521C122.501 89.1197 123.08 89.5533 123.121 90.1658L124.442 109.778C124.485 110.419 123.92 110.931 123.285 110.827L71.7199 102.326Z" fill="white"/>
<path fill-rule="evenodd" clip-rule="evenodd" d="M46.443 44.0269C46.3855 43.3911 45.763 42.9789 45.1591 43.1768L33.58 46.9715C33.052 47.1446 32.7596 47.7173 32.9259 48.2455C32.9263 48.2504 32.9268 48.2552 32.9273 48.2601L34.133 60.4562C33.6086 60.116 32.9654 59.9133 32.2692 59.9079C30.4885 59.894 29.0349 61.1759 29.0225 62.771C29.0101 64.3661 30.4435 65.6704 32.2242 65.6843C34.0049 65.6982 35.4585 64.4163 35.4709 62.8212C35.4716 62.7315 35.4677 62.6426 35.4595 62.5549L35.4598 62.5361L35.4766 50.3074L44.4893 47.2191L46.473 56.1167C45.9875 55.8476 45.4164 55.6903 44.8043 55.6855C43.0236 55.6717 41.57 56.9535 41.5576 58.5486C41.5452 60.1438 42.9787 61.4481 44.7593 61.462C46.54 61.4758 47.9936 60.194 48.006 58.5988C48.0077 58.3908 47.9847 58.1877 47.9395 57.9917L46.5775 45.5144L46.443 44.0269Z" fill="white"/>
<path fill-rule="evenodd" clip-rule="evenodd" d="M37.0326 14.609C37.0435 14.2892 37.3117 14.0392 37.6315 14.0506C37.8212 14.0574 37.9866 14.1547 38.0874 14.2995L38.0902 14.2467C38.0907 14.1875 38.7874 14.874 41.5708 18.0935C44.3541 21.3131 42.8618 25.1212 41.7677 26.6228L41.4151 26.62C41.4151 26.62 41.1047 26.4412 41.2446 26.1745C43.8066 21.2922 40.3133 18.761 38.0782 18.035L37.635 31.3529C37.6321 31.4396 37.6113 31.5196 37.5769 31.5905C37.5839 31.6306 37.5898 31.6712 37.5945 31.7121C37.7617 33.1555 36.4284 34.5069 34.6166 34.7304C32.8048 34.9539 31.2006 33.965 31.0334 32.5216C30.8662 31.0781 32.1995 29.7268 34.0113 29.5033C34.9577 29.3865 35.8475 29.6006 36.5054 30.0375L37.0326 14.609Z" fill="white"/>
<path fill-rule="evenodd" clip-rule="evenodd" d="M51.0327 68.609C51.0436 68.2892 51.3118 68.0392 51.6316 68.0506C51.8213 68.0574 51.9866 68.1547 52.0874 68.2994L52.0903 68.2469C52.0907 68.1877 52.7875 68.8741 55.5708 72.0937C58.3542 75.3132 56.8618 79.1213 55.7677 80.6229L55.4152 80.6201C55.4152 80.6201 55.1047 80.4413 55.2446 80.1747C57.8066 75.2923 54.3134 72.7612 52.0783 72.0352L51.6351 85.3529C51.6322 85.4396 51.6114 85.5197 51.5769 85.5906C51.5839 85.6307 51.5898 85.6712 51.5945 85.7121C51.7617 87.1555 50.4284 88.5069 48.6166 88.7304C46.8048 88.9539 45.2006 87.965 45.0334 86.5216C44.8662 85.0781 46.1995 83.7268 48.0113 83.5033C48.9577 83.3865 49.8476 83.6006 50.5055 84.0375L51.0327 68.609Z" fill="white"/>
<path d="M160.662 121C152.256 136.034 127.124 143.704 110.662 134.5C94.2008 125.296 95.2932 102.08 103.699 87.0458C112.105 72.0114 135.201 62.7958 151.662 72C168.124 81.2041 169.069 105.966 160.662 121Z" fill="white"/>
</g>
</svg>
