<svg width="389" height="100" viewBox="0 0 389 100" fill="none" xmlns="http://www.w3.org/2000/svg">
<path d="M61.2522 21.2582C61.2106 26.6046 56.2786 30.9006 51.0887 30.8602C45.8988 30.8198 42.9734 25.8924 43.015 20.546C43.0567 15.1995 45.6371 11.1707 50.8271 11.2111C56.017 11.2515 61.2939 15.9117 61.2522 21.2582Z" fill="#FF476F"/>
<ellipse cx="60.0558" cy="32.9231" rx="11.885" ry="12.8129" transform="rotate(0.446068 60.0558 32.9231)" fill="#FF476F"/>
<path d="M67.5406 30.1121C67.4842 37.3576 62.1175 43.1899 55.5538 43.1388C48.99 43.0877 43.195 32.941 43.2514 25.6955C43.3078 18.4499 53.3243 18.9223 59.888 18.9734C67.0616 20.6329 67.597 22.8665 67.5406 30.1121Z" fill="#FF476F"/>
<path d="M74.1283 36.0225C74.0762 42.7135 67.8784 48.7872 61.3147 48.736C54.751 48.6849 51.01 40.9679 49.1152 35.8278C49.1703 28.7516 53.8538 21.9124 60.4175 21.9635C64.3291 16.5839 73.7813 27.3352 74.1283 36.0225Z" fill="#FF476F"/>
<path d="M76.5681 42.1634C76.5351 46.4091 71.3377 47.1056 67.3689 47.0747C63.4002 47.0438 60.2096 43.5769 60.2427 39.3312C60.2758 35.0855 63.5753 24.5508 67.5441 24.5817C71.5128 24.6126 76.6012 37.9177 76.5681 42.1634Z" fill="#FF476F"/>
<ellipse cx="58.3531" cy="38.6047" rx="7.18631" ry="7.68775" transform="rotate(0.446068 58.3531 38.6047)" fill="#FF476F"/>
<path d="M89.741 67.6252C90.2451 68.6517 88.948 69.6202 88.1582 68.807L67.0859 47.1112C66.6595 46.6721 66.7193 45.942 67.2119 45.5743L74.8343 39.8832C75.3268 39.5154 76.0189 39.6841 76.291 40.2383L89.741 67.6252Z" fill="#FF476F"/>
<path d="M94.1594 68.0149C94.8959 68.9712 93.6627 70.2088 92.7538 69.4257L74.8553 54.0039C74.3992 53.6108 74.3843 52.8932 74.8236 52.478L78.309 49.1849C78.7308 48.7863 79.3915 48.8392 79.7464 49.3L94.1594 68.0149Z" fill="#FF476F"/>
<path d="M89.0774 56.5118C89.7456 57.4163 88.6918 58.591 87.7635 57.9765L63.8063 42.1202C63.0609 41.6269 63.2717 40.4531 64.138 40.2731L75.0096 38.0148C75.3896 37.9358 75.7802 38.094 76.0073 38.4189L81.238 45.9014L89.0774 56.5118Z" fill="#FF476F"/>
<path d="M36.9287 15.5217L51.0657 14.182L50.6237 19.3663L36.9287 15.5217Z" fill="#FF476F"/>
<path d="M36.356 18.0799L50.493 16.7403L50.051 21.9246L36.356 18.0799Z" fill="#FF476F"/>
<path d="M41.8515 45.7371L78.2109 45.593L78.279 52.5924L41.7983 52.5705L41.8515 45.7371Z" fill="#FF476F"/>
<path d="M5.79441 37.1648C6.53387 36.6336 7.47181 36.4592 8.35947 36.6877L41.9674 45.3401C43.8181 45.8166 44.9525 47.7082 44.5012 49.5652C44.0437 51.4479 42.1349 52.5671 40.2679 52.0475L6.82619 42.7392C4.29023 42.0333 3.67137 38.6898 5.79441 37.1648Z" fill="#FF476F"/>
<rect width="14.2205" height="6.55679" transform="matrix(0.999006 -0.0445811 0.0415672 0.999136 78.1988 44.7595)" fill="#FF476F"/>
<path d="M89.5768 47.2661C89.5899 45.5801 90.8672 44.1625 92.539 43.9786L102.415 42.8927C103.668 42.7549 104.873 43.3816 105.477 44.4839C106.533 46.4137 105.318 48.8258 103.133 49.1349L93.2924 50.527C91.3132 50.807 89.5612 49.2694 89.5768 47.2661Z" fill="#FF476F"/>
<path fill-rule="evenodd" clip-rule="evenodd" d="M60.9361 40.5867C60.3832 40.6007 59.8221 40.6045 59.2555 40.6001C51.3141 39.1146 46.5703 36.8258 46.6193 30.5359C46.6682 24.2459 50.506 22.0287 57.5276 22.0834C63.5517 22.1303 70.2997 25.6182 72.0646 30.5803C72.2056 30.7754 72.3261 30.9905 72.4215 31.2241L76.5762 41.392C77.582 43.8536 75.2112 46.2975 72.7662 45.3194L60.9361 40.5867Z" fill="#EC4468"/>
<path fill-rule="evenodd" clip-rule="evenodd" d="M29.8038 5.64534C29.7226 5.42513 29.4804 5.29829 29.2445 5.37561L26.7816 6.18277C26.7501 6.1931 26.7203 6.20644 26.6925 6.22237C26.5238 6.23926 26.3828 6.39063 26.4013 6.57819L26.7052 9.65177C26.573 9.56602 26.4109 9.51494 26.2355 9.51357C25.7867 9.51008 25.4204 9.83312 25.4172 10.2351C25.4141 10.6371 25.7754 10.9658 26.2241 10.9693C26.6729 10.9728 27.0392 10.6498 27.0423 10.2478C27.0425 10.2252 27.0415 10.2028 27.0394 10.1807L27.0395 10.1759L27.0438 7.09358C27.0511 7.09144 27.0585 7.08911 27.0659 7.08659L29.3151 6.31588L29.815 8.55816C29.6926 8.49033 29.5487 8.4507 29.3945 8.44949C28.9457 8.446 28.5794 8.76904 28.5762 9.17103C28.5731 9.57302 28.9344 9.90173 29.3831 9.90522C29.8319 9.90871 30.1982 9.58567 30.2013 9.18368C30.2017 9.13127 30.196 9.0801 30.1846 9.03073L29.8321 5.80157C29.832 5.78892 29.8314 5.7762 29.8302 5.76343C29.8285 5.74458 29.8257 5.72615 29.8219 5.70821L29.8142 5.63743L29.8038 5.64534Z" fill="#EC4468"/>
<path fill-rule="evenodd" clip-rule="evenodd" d="M24.0117 0.324165C24.0144 0.243559 24.082 0.180553 24.1626 0.183438C24.2104 0.185149 24.2521 0.209665 24.2775 0.24616L24.2782 0.232884C24.2783 0.217961 24.4539 0.390955 25.1553 1.20232C25.8568 2.01369 25.4807 2.97337 25.205 3.35179L25.1161 3.35109C25.1161 3.35109 25.0379 3.30602 25.0731 3.23883C25.7188 2.00842 24.8384 1.37054 24.2752 1.18758L24.1635 4.54381C24.1627 4.56568 24.1575 4.58585 24.1488 4.60373C24.1506 4.61385 24.1521 4.62406 24.1533 4.63437C24.1954 4.99813 23.8594 5.33868 23.4028 5.39501C22.9462 5.45135 22.5419 5.20213 22.4998 4.83836C22.4576 4.4746 22.7936 4.13405 23.2502 4.07772C23.4888 4.04829 23.713 4.10224 23.8788 4.21235L24.0117 0.324165Z" fill="#FF476F"/>
<path fill-rule="evenodd" clip-rule="evenodd" d="M32.7807 10.0736C32.7835 9.99299 32.851 9.92999 32.9317 9.93287C32.9795 9.93458 33.0211 9.95911 33.0465 9.9956L33.0473 9.98232C33.0474 9.9674 33.223 10.1404 33.9244 10.9518C34.6258 11.7631 34.2497 12.7228 33.974 13.1012L33.8852 13.1005C33.8852 13.1005 33.8069 13.0555 33.8422 12.9883C34.4878 11.7579 33.6075 11.12 33.0442 10.937L32.9325 14.2932C32.9318 14.3151 32.9266 14.3353 32.9179 14.3532C32.9196 14.3633 32.9211 14.3735 32.9223 14.3838C32.9644 14.7476 32.6284 15.0881 32.1718 15.1444C31.7153 15.2008 31.311 14.9516 31.2688 14.5878C31.2267 14.224 31.5627 13.8835 32.0193 13.8272C32.2578 13.7977 32.4821 13.8517 32.6479 13.9618L32.7807 10.0736Z" fill="#FF476F"/>
<path d="M177.75 45.1719C177.328 48.7812 175.992 51.5703 173.742 53.5391C171.508 55.4922 168.531 56.4688 164.812 56.4688C160.781 56.4688 157.547 55.0234 155.109 52.1328C152.688 49.2422 151.477 45.375 151.477 40.5312V37.25C151.477 34.0781 152.039 31.2891 153.164 28.8828C154.305 26.4766 155.914 24.6328 157.992 23.3516C160.07 22.0547 162.477 21.4062 165.211 21.4062C168.836 21.4062 171.742 22.4219 173.93 24.4531C176.117 26.4688 177.391 29.2656 177.75 32.8438H173.227C172.836 30.125 171.984 28.1562 170.672 26.9375C169.375 25.7188 167.555 25.1094 165.211 25.1094C162.336 25.1094 160.078 26.1719 158.438 28.2969C156.812 30.4219 156 33.4453 156 37.3672V40.6719C156 44.375 156.773 47.3203 158.32 49.5078C159.867 51.6953 162.031 52.7891 164.812 52.7891C167.312 52.7891 169.227 52.2266 170.555 51.1016C171.898 49.9609 172.789 47.9844 173.227 45.1719H177.75ZM187.57 33.7109C189.492 31.3516 191.992 30.1719 195.07 30.1719C200.43 30.1719 203.133 33.1953 203.18 39.2422V56H198.844V39.2188C198.828 37.3906 198.406 36.0391 197.578 35.1641C196.766 34.2891 195.492 33.8516 193.758 33.8516C192.352 33.8516 191.117 34.2266 190.055 34.9766C188.992 35.7266 188.164 36.7109 187.57 37.9297V56H183.234V20H187.57V33.7109ZM214.383 56H210.047V30.6406H214.383V56ZM209.695 23.9141C209.695 23.2109 209.906 22.6172 210.328 22.1328C210.766 21.6484 211.406 21.4062 212.25 21.4062C213.094 21.4062 213.734 21.6484 214.172 22.1328C214.609 22.6172 214.828 23.2109 214.828 23.9141C214.828 24.6172 214.609 25.2031 214.172 25.6719C213.734 26.1406 213.094 26.375 212.25 26.375C211.406 26.375 210.766 26.1406 210.328 25.6719C209.906 25.2031 209.695 24.6172 209.695 23.9141ZM233.602 34.5312C232.945 34.4219 232.234 34.3672 231.469 34.3672C228.625 34.3672 226.695 35.5781 225.68 38V56H221.344V30.6406H225.562L225.633 33.5703C227.055 31.3047 229.07 30.1719 231.68 30.1719C232.523 30.1719 233.164 30.2812 233.602 30.5V34.5312ZM259.031 43.6016C259.031 47.4609 258.148 50.5703 256.383 52.9297C254.617 55.2891 252.227 56.4688 249.211 56.4688C246.133 56.4688 243.711 55.4922 241.945 53.5391V65.75H237.609V30.6406H241.57L241.781 33.4531C243.547 31.2656 246 30.1719 249.141 30.1719C252.188 30.1719 254.594 31.3203 256.359 33.6172C258.141 35.9141 259.031 39.1094 259.031 43.2031V43.6016ZM254.695 43.1094C254.695 40.25 254.086 37.9922 252.867 36.3359C251.648 34.6797 249.977 33.8516 247.852 33.8516C245.227 33.8516 243.258 35.0156 241.945 37.3438V49.4609C243.242 51.7734 245.227 52.9297 247.898 52.9297C249.977 52.9297 251.625 52.1094 252.844 50.4688C254.078 48.8125 254.695 46.3594 254.695 43.1094ZM275.086 56.4688C271.648 56.4688 268.852 55.3438 266.695 53.0938C264.539 50.8281 263.461 47.8047 263.461 44.0234V43.2266C263.461 40.7109 263.938 38.4688 264.891 36.5C265.859 34.5156 267.203 32.9688 268.922 31.8594C270.656 30.7344 272.531 30.1719 274.547 30.1719C277.844 30.1719 280.406 31.2578 282.234 33.4297C284.062 35.6016 284.977 38.7109 284.977 42.7578V44.5625H267.797C267.859 47.0625 268.586 49.0859 269.977 50.6328C271.383 52.1641 273.164 52.9297 275.32 52.9297C276.852 52.9297 278.148 52.6172 279.211 51.9922C280.273 51.3672 281.203 50.5391 282 49.5078L284.648 51.5703C282.523 54.8359 279.336 56.4688 275.086 56.4688ZM274.547 33.7344C272.797 33.7344 271.328 34.375 270.141 35.6562C268.953 36.9219 268.219 38.7031 267.938 41H280.641V40.6719C280.516 38.4688 279.922 36.7656 278.859 35.5625C277.797 34.3438 276.359 33.7344 274.547 33.7344ZM302.273 34.5312C301.617 34.4219 300.906 34.3672 300.141 34.3672C297.297 34.3672 295.367 35.5781 294.352 38V56H290.016V30.6406H294.234L294.305 33.5703C295.727 31.3047 297.742 30.1719 300.352 30.1719C301.195 30.1719 301.836 30.2812 302.273 30.5V34.5312Z" fill="#FF476F"/>
<path d="M249.453 92.4648C250.227 92.4648 250.902 92.2305 251.48 91.7617C252.059 91.293 252.379 90.707 252.441 90.0039H254.492C254.453 90.7305 254.203 91.4219 253.742 92.0781C253.281 92.7344 252.664 93.2578 251.891 93.6484C251.125 94.0391 250.312 94.2344 249.453 94.2344C247.727 94.2344 246.352 93.6602 245.328 92.5117C244.312 91.3555 243.805 89.7773 243.805 87.7773V87.4141C243.805 86.1797 244.031 85.082 244.484 84.1211C244.938 83.1602 245.586 82.4141 246.43 81.8828C247.281 81.3516 248.285 81.0859 249.441 81.0859C250.863 81.0859 252.043 81.5117 252.98 82.3633C253.926 83.2148 254.43 84.3203 254.492 85.6797H252.441C252.379 84.8594 252.066 84.1875 251.504 83.6641C250.949 83.1328 250.262 82.8672 249.441 82.8672C248.34 82.8672 247.484 83.2656 246.875 84.0625C246.273 84.8516 245.973 85.9961 245.973 87.4961V87.9062C245.973 89.3672 246.273 90.4922 246.875 91.2812C247.477 92.0703 248.336 92.4648 249.453 92.4648ZM259.098 82.8555C260.059 81.6758 261.309 81.0859 262.848 81.0859C265.527 81.0859 266.879 82.5977 266.902 85.6211V94H264.734V85.6094C264.727 84.6953 264.516 84.0195 264.102 83.582C263.695 83.1445 263.059 82.9258 262.191 82.9258C261.488 82.9258 260.871 83.1133 260.34 83.4883C259.809 83.8633 259.395 84.3555 259.098 84.9648V94H256.93V76H259.098V82.8555ZM275.41 94.2344C273.691 94.2344 272.293 93.6719 271.215 92.5469C270.137 91.4141 269.598 89.9023 269.598 88.0117V87.6133C269.598 86.3555 269.836 85.2344 270.312 84.25C270.797 83.2578 271.469 82.4844 272.328 81.9297C273.195 81.3672 274.133 81.0859 275.141 81.0859C276.789 81.0859 278.07 81.6289 278.984 82.7148C279.898 83.8008 280.355 85.3555 280.355 87.3789V88.2812H271.766C271.797 89.5312 272.16 90.543 272.855 91.3164C273.559 92.082 274.449 92.4648 275.527 92.4648C276.293 92.4648 276.941 92.3086 277.473 91.9961C278.004 91.6836 278.469 91.2695 278.867 90.7539L280.191 91.7852C279.129 93.418 277.535 94.2344 275.41 94.2344ZM275.141 82.8672C274.266 82.8672 273.531 83.1875 272.938 83.8281C272.344 84.4609 271.977 85.3516 271.836 86.5H278.188V86.3359C278.125 85.2344 277.828 84.3828 277.297 83.7812C276.766 83.1719 276.047 82.8672 275.141 82.8672ZM288.137 94.2344C286.418 94.2344 285.02 93.6719 283.941 92.5469C282.863 91.4141 282.324 89.9023 282.324 88.0117V87.6133C282.324 86.3555 282.562 85.2344 283.039 84.25C283.523 83.2578 284.195 82.4844 285.055 81.9297C285.922 81.3672 286.859 81.0859 287.867 81.0859C289.516 81.0859 290.797 81.6289 291.711 82.7148C292.625 83.8008 293.082 85.3555 293.082 87.3789V88.2812H284.492C284.523 89.5312 284.887 90.543 285.582 91.3164C286.285 92.082 287.176 92.4648 288.254 92.4648C289.02 92.4648 289.668 92.3086 290.199 91.9961C290.73 91.6836 291.195 91.2695 291.594 90.7539L292.918 91.7852C291.855 93.418 290.262 94.2344 288.137 94.2344ZM287.867 82.8672C286.992 82.8672 286.258 83.1875 285.664 83.8281C285.07 84.4609 284.703 85.3516 284.562 86.5H290.914V86.3359C290.852 85.2344 290.555 84.3828 290.023 83.7812C289.492 83.1719 288.773 82.8672 287.867 82.8672ZM306.312 87.8008C306.312 89.7305 305.871 91.2852 304.988 92.4648C304.105 93.6445 302.91 94.2344 301.402 94.2344C299.863 94.2344 298.652 93.7461 297.77 92.7695V98.875H295.602V81.3203H297.582L297.688 82.7266C298.57 81.6328 299.797 81.0859 301.367 81.0859C302.891 81.0859 304.094 81.6602 304.977 82.8086C305.867 83.957 306.312 85.5547 306.312 87.6016V87.8008ZM304.145 87.5547C304.145 86.125 303.84 84.9961 303.23 84.168C302.621 83.3398 301.785 82.9258 300.723 82.9258C299.41 82.9258 298.426 83.5078 297.77 84.6719V90.7305C298.418 91.8867 299.41 92.4648 300.746 92.4648C301.785 92.4648 302.609 92.0547 303.219 91.2344C303.836 90.4062 304.145 89.1797 304.145 87.5547ZM309.008 97.3984L307.777 96.5547C308.512 95.5312 308.895 94.4766 308.926 93.3906V91.4336H311.047V93.1328C311.047 93.9219 310.852 94.7109 310.461 95.5C310.078 96.2891 309.594 96.9219 309.008 97.3984ZM324.828 92.4648C325.602 92.4648 326.277 92.2305 326.855 91.7617C327.434 91.293 327.754 90.707 327.816 90.0039H329.867C329.828 90.7305 329.578 91.4219 329.117 92.0781C328.656 92.7344 328.039 93.2578 327.266 93.6484C326.5 94.0391 325.688 94.2344 324.828 94.2344C323.102 94.2344 321.727 93.6602 320.703 92.5117C319.688 91.3555 319.18 89.7773 319.18 87.7773V87.4141C319.18 86.1797 319.406 85.082 319.859 84.1211C320.312 83.1602 320.961 82.4141 321.805 81.8828C322.656 81.3516 323.66 81.0859 324.816 81.0859C326.238 81.0859 327.418 81.5117 328.355 82.3633C329.301 83.2148 329.805 84.3203 329.867 85.6797H327.816C327.754 84.8594 327.441 84.1875 326.879 83.6641C326.324 83.1328 325.637 82.8672 324.816 82.8672C323.715 82.8672 322.859 83.2656 322.25 84.0625C321.648 84.8516 321.348 85.9961 321.348 87.4961V87.9062C321.348 89.3672 321.648 90.4922 322.25 91.2812C322.852 92.0703 323.711 92.4648 324.828 92.4648ZM334.473 82.8555C335.434 81.6758 336.684 81.0859 338.223 81.0859C340.902 81.0859 342.254 82.5977 342.277 85.6211V94H340.109V85.6094C340.102 84.6953 339.891 84.0195 339.477 83.582C339.07 83.1445 338.434 82.9258 337.566 82.9258C336.863 82.9258 336.246 83.1133 335.715 83.4883C335.184 83.8633 334.77 84.3555 334.473 84.9648V94H332.305V76H334.473V82.8555ZM350.785 94.2344C349.066 94.2344 347.668 93.6719 346.59 92.5469C345.512 91.4141 344.973 89.9023 344.973 88.0117V87.6133C344.973 86.3555 345.211 85.2344 345.688 84.25C346.172 83.2578 346.844 82.4844 347.703 81.9297C348.57 81.3672 349.508 81.0859 350.516 81.0859C352.164 81.0859 353.445 81.6289 354.359 82.7148C355.273 83.8008 355.73 85.3555 355.73 87.3789V88.2812H347.141C347.172 89.5312 347.535 90.543 348.23 91.3164C348.934 92.082 349.824 92.4648 350.902 92.4648C351.668 92.4648 352.316 92.3086 352.848 91.9961C353.379 91.6836 353.844 91.2695 354.242 90.7539L355.566 91.7852C354.504 93.418 352.91 94.2344 350.785 94.2344ZM350.516 82.8672C349.641 82.8672 348.906 83.1875 348.312 83.8281C347.719 84.4609 347.352 85.3516 347.211 86.5H353.562V86.3359C353.5 85.2344 353.203 84.3828 352.672 83.7812C352.141 83.1719 351.422 82.8672 350.516 82.8672ZM363.512 94.2344C361.793 94.2344 360.395 93.6719 359.316 92.5469C358.238 91.4141 357.699 89.9023 357.699 88.0117V87.6133C357.699 86.3555 357.938 85.2344 358.414 84.25C358.898 83.2578 359.57 82.4844 360.43 81.9297C361.297 81.3672 362.234 81.0859 363.242 81.0859C364.891 81.0859 366.172 81.6289 367.086 82.7148C368 83.8008 368.457 85.3555 368.457 87.3789V88.2812H359.867C359.898 89.5312 360.262 90.543 360.957 91.3164C361.66 92.082 362.551 92.4648 363.629 92.4648C364.395 92.4648 365.043 92.3086 365.574 91.9961C366.105 91.6836 366.57 91.2695 366.969 90.7539L368.293 91.7852C367.23 93.418 365.637 94.2344 363.512 94.2344ZM363.242 82.8672C362.367 82.8672 361.633 83.1875 361.039 83.8281C360.445 84.4609 360.078 85.3516 359.938 86.5H366.289V86.3359C366.227 85.2344 365.93 84.3828 365.398 83.7812C364.867 83.1719 364.148 82.8672 363.242 82.8672ZM381.688 87.8008C381.688 89.7305 381.246 91.2852 380.363 92.4648C379.48 93.6445 378.285 94.2344 376.777 94.2344C375.238 94.2344 374.027 93.7461 373.145 92.7695V98.875H370.977V81.3203H372.957L373.062 82.7266C373.945 81.6328 375.172 81.0859 376.742 81.0859C378.266 81.0859 379.469 81.6602 380.352 82.8086C381.242 83.957 381.688 85.5547 381.688 87.6016V87.8008ZM379.52 87.5547C379.52 86.125 379.215 84.9961 378.605 84.168C377.996 83.3398 377.16 82.9258 376.098 82.9258C374.785 82.9258 373.801 83.5078 373.145 84.6719V90.7305C373.793 91.8867 374.785 92.4648 376.121 92.4648C377.16 92.4648 377.984 92.0547 378.594 91.2344C379.211 90.4062 379.52 89.1797 379.52 87.5547ZM386.879 89.1836H384.922L384.77 76.9375H387.043L386.879 89.1836ZM384.688 92.9102C384.688 92.5586 384.793 92.2656 385.004 92.0312C385.223 91.7891 385.543 91.668 385.965 91.668C386.387 91.668 386.707 91.7891 386.926 92.0312C387.145 92.2656 387.254 92.5586 387.254 92.9102C387.254 93.2617 387.145 93.5547 386.926 93.7891C386.707 94.0156 386.387 94.1289 385.965 94.1289C385.543 94.1289 385.223 94.0156 385.004 93.7891C384.793 93.5547 384.688 93.2617 384.688 92.9102Z" fill="#FF476F"/>
</svg>
